<svg viewBox = "0 0 88 88" width="88" height="88" xmlns="http://www.w3.org/2000/svg"><g transform="matrix(1 0 0 1 44 44)"  ><g style=""   ><g transform="matrix(1 0 0 1 18.71 -0.85)" clip-path="url(#CLIPPATH_1154)"  ><clipPath id="CLIPPATH_1154" ><rect transform="matrix(1 0 0 1 -18.71 0.85)" id="clip0_62_109" x="-40" y="-24" rx="0" ry="0" width="80" height="48" /></clipPath><path style="stroke: none; stroke-width: 1; stroke-dasharray: none; stroke-linecap: butt; stroke-dashoffset: 0; stroke-linejoin: miter; stroke-miterlimit: 4; fill: rgb(66,73,85); fill-rule: nonzero; opacity: 1;"  transform=" translate(-62.71, -43.15)" d="M 83.8611 64.9404 L 56.61 20.422 C 56.4017 20.0879 56.0025 19.9297 55.638 20.0352 C 55.2735 20.1407 55.0132 20.4923 55.0132 20.8791 L 55.0132 28.3516 C 55.0132 28.5099 55.0652 28.6681 55.152 28.8088 L 74.5922 60.58 L 44.6508 60.58 C 44.3557 60.58 44.078 60.7383 43.9218 61.002 L 41.5091 64.9404 C 41.3356 65.2042 41.3356 65.5558 41.4918 65.8371 C 41.648 66.1184 41.9257 66.2943 42.2555 66.2943 L 83.1668 66.2943 C 83.4792 66.2943 83.7743 66.1184 83.9305 65.8371 C 84.0867 65.5558 84.0694 65.2217 83.9131 64.9404 L 83.8611 64.9404 Z" stroke-linecap="round" /></g><g transform="matrix(1 0 0 1 -18.68 0.91)" clip-path="url(#CLIPPATH_1155)"  ><clipPath id="CLIPPATH_1155" ><rect transform="matrix(1 0 0 1 18.68 -0.91)" id="clip0_62_109" x="-40" y="-24" rx="0" ry="0" width="80" height="48" /></clipPath><path style="stroke: none; stroke-width: 1; stroke-dasharray: none; stroke-linecap: butt; stroke-dashoffset: 0; stroke-linejoin: miter; stroke-miterlimit: 4; fill: rgb(188,193,202); fill-rule: nonzero; opacity: 1;"  transform=" translate(-25.32, -44.91)" d="M 46.5429 22.2329 C 46.3867 21.9516 46.0916 21.7758 45.7792 21.7758 L 4.86793 21.7758 C 4.5555 21.7758 4.26042 21.9516 4.10421 22.2329 C 3.94799 22.5142 3.96535 22.8483 4.12156 23.1296 L 31.3726 67.6304 C 31.5288 67.8942 31.8065 68.0524 32.1016 68.0524 C 32.1884 68.0524 32.2578 68.0524 32.3446 68.0172 C 32.7091 67.9117 32.9695 67.5601 32.9695 67.1733 L 32.9695 59.7008 C 32.9695 59.5426 32.9174 59.3843 32.8306 59.2437 L 13.4077 27.4548 L 43.3665 27.4548 C 43.6616 27.4548 43.9393 27.2966 44.0955 27.0329 L 46.5082 23.112 C 46.6818 22.8483 46.6818 22.4966 46.5256 22.2153 L 46.5429 22.2329 Z" stroke-linecap="round" /></g><g transform="matrix(1 0 0 1 0 0.02)" clip-path="url(#CLIPPATH_1156)"  ><clipPath id="CLIPPATH_1156" ><rect transform="matrix(1 0 0 1 0 -0.02)" id="clip0_62_109" x="-40" y="-24" rx="0" ry="0" width="80" height="48" /></clipPath><path style="stroke: none; stroke-width: 1; stroke-dasharray: none; stroke-linecap: butt; stroke-dashoffset: 0; stroke-linejoin: miter; stroke-miterlimit: 4; fill: rgb(188,193,202); fill-rule: nonzero; opacity: 1;"  transform=" translate(-44, -44.02)" d="M 56.1241 20.0352 C 55.7595 19.9297 55.3603 20.0879 55.152 20.422 L 31.3898 59.2262 C 31.303 59.3668 31.251 59.5251 31.251 59.6833 L 31.251 67.1558 C 31.251 67.5426 31.5113 67.8943 31.8758 67.9997 C 31.9453 68.0173 32.0321 68.0349 32.1188 68.0349 C 32.4139 68.0349 32.6916 67.8767 32.8479 67.6129 L 56.6101 28.8088 C 56.6968 28.6681 56.7489 28.5099 56.7489 28.3516 L 56.7489 20.8791 C 56.7489 20.4923 56.4886 20.1407 56.1241 20.0352 Z" stroke-linecap="round" /></g></g></g></svg>