<svg viewBox = "0 0 88 88" width="88" height="88" xmlns="http://www.w3.org/2000/svg"><g transform="matrix(1 0 0 1 44 44)"  ><g style=""   ><g transform="matrix(1 0 0 1 12.39 7.24)" clip-path="url(#CLIPPATH_1123)"  ><clipPath id="CLIPPATH_1123" ><rect transform="matrix(1 0 0 1 -12.39 -7.24)" id="clip0_62_43" x="-40" y="-29" rx="0" ry="0" width="80" height="58" /></clipPath><path style="stroke: none; stroke-width: 1; stroke-dasharray: none; stroke-linecap: butt; stroke-dashoffset: 0; stroke-linejoin: miter; stroke-miterlimit: 4; fill: rgb(222,225,230); fill-rule: nonzero; opacity: 1;"  transform=" translate(-56.39, -51.24)" d="M 56.3895 73 L 82.5863 29.4845 L 56.3895 29.4845 L 30.1968 73 L 56.3895 73 Z" stroke-linecap="round" /></g><g transform="matrix(1 0 0 1 14.72 1.74)" clip-path="url(#CLIPPATH_1124)"  ><clipPath id="CLIPPATH_1124" ><rect transform="matrix(1 0 0 1 -14.72 -1.74)" id="clip0_62_43" x="-40" y="-29" rx="0" ry="0" width="80" height="58" /></clipPath><path style="stroke: none; stroke-width: 1; stroke-dasharray: none; stroke-linecap: butt; stroke-dashoffset: 0; stroke-linejoin: miter; stroke-miterlimit: 4; fill: rgb(0,0,0); fill-rule: nonzero; opacity: 0.3;"  transform=" translate(-58.72, -45.74)" d="M 55.4458 61.9897 L 63.0164 61.9897 L 71.3143 48.2091 L 57.2803 29.4845 L 56.3896 29.4845 L 46.1348 46.5238 L 55.4458 61.9897 Z" stroke-linecap="round" /></g><g transform="matrix(1 0 0 1 -13.81 7.24)" clip-path="url(#CLIPPATH_1125)"  ><clipPath id="CLIPPATH_1125" ><rect transform="matrix(1 0 0 1 13.81 -7.24)" id="clip0_62_43" x="-40" y="-29" rx="0" ry="0" width="80" height="58" /></clipPath><path style="stroke: none; stroke-width: 1; stroke-dasharray: none; stroke-linecap: butt; stroke-dashoffset: 0; stroke-linejoin: miter; stroke-miterlimit: 4; fill: rgb(188,193,202); fill-rule: nonzero; opacity: 1;"  transform=" translate(-30.19, -51.24)" d="M 30.1968 73 L 4 29.4845 L 30.1968 29.4845 L 56.3896 73 L 30.1968 73 Z" stroke-linecap="round" /></g><g transform="matrix(1 0 0 1 13.81 -7.24)" clip-path="url(#CLIPPATH_1126)"  ><clipPath id="CLIPPATH_1126" ><rect transform="matrix(1 0 0 1 -13.81 7.24)" id="clip0_62_43" x="-40" y="-29" rx="0" ry="0" width="80" height="58" /></clipPath><path style="stroke: none; stroke-width: 1; stroke-dasharray: none; stroke-linecap: butt; stroke-dashoffset: 0; stroke-linejoin: miter; stroke-miterlimit: 4; fill: rgb(188,193,202); fill-rule: nonzero; opacity: 1;"  transform=" translate(-57.81, -36.76)" d="M 57.8031 15 L 83.9999 58.5114 L 57.8031 58.5114 L 31.6104 15 L 57.8031 15 Z" stroke-linecap="round" /></g></g></g></svg>