<svg viewBox = "0 0 94 94" width="94" height="94" xmlns="http://www.w3.org/2000/svg"><g transform="matrix(1 0 0 1 47 47)"  ><g style=""   ><g transform="matrix(1 0 0 1 -14.33 0)"  ><path style="stroke: none; stroke-width: 1; stroke-dasharray: none; stroke-linecap: butt; stroke-dashoffset: 0; stroke-linejoin: miter; stroke-miterlimit: 4; fill: rgb(66,73,85); fill-rule: evenodd; opacity: 1;"  transform=" translate(-32.67, -47)" d="M 53.4459 7.51671 C 51.3475 7.17675 49.1944 7.00004 47 7.00004 C 24.9086 7.00004 7 24.9086 7 47 C 7 69.0914 24.9086 87 47 87 C 50.9359 87 54.7391 86.4315 58.3318 85.3722 C 39.3052 82.2898 24.7778 65.7859 24.7778 45.8889 C 24.7778 27.7334 36.8734 12.4031 53.4459 7.51671 Z" stroke-linecap="round" /></g><g transform="matrix(1 0 0 1 17.14 0)"  ><path style="stroke: none; stroke-width: 1; stroke-dasharray: none; stroke-linecap: butt; stroke-dashoffset: 0; stroke-linejoin: miter; stroke-miterlimit: 4; fill: rgb(110,119,135); fill-rule: evenodd; opacity: 1;"  transform=" translate(-64.14, -47)" d="M 86.9999 47 C 86.9999 24.9086 69.0913 7.00004 46.9999 7.00005 C 45.0598 7.00005 43.1519 7.13818 41.2856 7.40513 C 55.824 10.1779 66.9999 26.8488 66.9999 47 C 66.9999 67.1513 55.824 83.8222 41.2856 86.5949 C 43.152 86.8619 45.0598 87 46.9999 87 C 69.0913 87 86.9999 69.0914 86.9999 47 Z" stroke-linecap="round" /></g><g transform="matrix(1 0 0 1 0 15.28)"  ><path style="stroke: none; stroke-width: 1; stroke-dasharray: none; stroke-linecap: butt; stroke-dashoffset: 0; stroke-linejoin: miter; stroke-miterlimit: 4; fill: rgb(222,225,230); fill-rule: evenodd; opacity: 1;"  transform=" translate(-47, -62.28)" d="M 8.12145 37.5556 C 12.3657 55.089 28.1621 68.1111 47 68.1111 C 65.8379 68.1111 81.6343 55.089 85.8785 37.5556 C 86.6115 40.5838 87 43.7465 87 47 C 87 69.0914 69.0914 87 47 87 C 24.9086 87 7 69.0914 7 47 C 7 43.7465 7.38843 40.5838 8.12145 37.5556 Z" stroke-linecap="round" /></g></g></g></svg>