<svg viewBox = "0 0 1080 1080" width="1080" height="1080" xmlns="http://www.w3.org/2000/svg"><g transform="matrix(1 0 0 1 540 540)"  ><g style=""   ><g transform="matrix(1 0 0 1 0.44 0)"  ><path style="stroke: none; stroke-width: 1; stroke-dasharray: none; stroke-linecap: butt; stroke-dashoffset: 0; stroke-linejoin: miter; stroke-miterlimit: 4; fill: rgb(99,106,232); fill-rule: evenodd; opacity: 1;"  transform=" translate(-540.44, -540)" d="M 465.877 924.663 C 255.364 889.187 95.0001 706.04 95.0001 485.438 C 95.0001 239.429 294.429 40 540.438 40 C 786.446 40 985.875 239.429 985.875 485.438 C 985.875 685.341 854.193 854.488 672.839 910.867 C 654.043 921.552 600.373 952.238 564.299 974.624 C 524.589 999.266 464.063 1040 464.063 1040 C 464.063 1040 468.642 1002.65 468.848 978.601 C 468.998 961.055 466.944 936.258 465.877 924.663 Z" stroke-linecap="round" /></g><g transform="matrix(1 0 0 1 0 -31.25)"  ><path style="stroke: none; stroke-width: 1; stroke-dasharray: none; stroke-linecap: butt; stroke-dashoffset: 0; stroke-linejoin: miter; stroke-miterlimit: 4; fill: rgb(66,73,85); fill-rule: nonzero; opacity: 1;"  transform=" translate(-540, -508.75)" d="M 844.999 555.229 C 844.999 517.753 826.472 484.749 798.175 464.665 C 797.093 322.691 681.753 207.5 540.005 207.5 C 398.235 207.5 282.878 322.691 281.818 464.665 C 253.527 484.749 235 517.753 235 555.229 C 235 615.165 282.398 663.744 341.598 666.082 C 341.598 674.742 348.606 681.789 357.254 681.789 L 403.741 681.789 C 412.389 681.789 419.419 674.742 419.419 666.082 L 419.419 444.354 C 419.419 435.661 412.389 428.647 403.724 428.647 L 357.276 428.647 C 348.606 428.647 341.598 435.661 341.598 444.354 C 335.76 444.597 330.155 445.589 324.583 446.675 C 334.645 336.288 427.377 249.486 540.011 249.486 C 652.628 249.486 745.359 336.293 755.421 446.675 C 749.849 445.589 744.238 444.597 738.401 444.354 C 738.401 435.661 731.393 428.647 722.723 428.647 L 676.275 428.647 C 667.61 428.647 660.58 435.661 660.58 444.354 L 660.58 666.082 C 660.58 674.742 667.605 681.789 676.253 681.789 L 722.74 681.789 C 731.388 681.789 738.396 674.742 738.396 666.082 C 750.197 665.6 761.529 663.24 772.132 659.35 C 764.058 690.222 736.811 747.615 646.896 759.621 L 646.896 758.219 C 646.896 745.559 636.663 735.293 624.044 735.293 L 562.834 735.293 C 550.232 735.293 539.999 745.559 539.999 758.219 L 539.999 787.074 C 539.999 799.75 550.232 810 562.834 810 L 624.044 810 C 636.663 810 646.896 799.75 646.896 787.074 L 646.896 779.373 C 766.538 764.596 789.803 675.118 794.034 648.413 C 824.644 628.684 844.999 594.444 844.999 555.229 Z" stroke-linecap="round" /></g><g transform="matrix(1 0 0 1 0 76.02)"  ><path style="stroke: rgb(66,73,85); stroke-width: 10; stroke-dasharray: none; stroke-linecap: round; stroke-dashoffset: 0; stroke-linejoin: miter; stroke-miterlimit: 4; fill: none; fill-rule: nonzero; opacity: 1;"  transform=" translate(-540, -616.02)" d="M 474.999 605 C 531.249 635 554.999 633.75 604.999 605" stroke-linecap="round" /></g></g></g></svg>