<svg viewBox = "0 0 1091 273" width="1091" height="273" xmlns="http://www.w3.org/2000/svg"><g transform="matrix(1 0 0 1 545.5 136.5)"  ><g style=""   ><g transform="matrix(1 0 0 1 -446.33 24.82)"  ><path style="stroke: none; stroke-width: 1; stroke-dasharray: none; stroke-linecap: butt; stroke-dashoffset: 0; stroke-linejoin: miter; stroke-miterlimit: 4; fill: rgb(99,106,232); fill-rule: evenodd; opacity: 1;"  transform=" translate(-99.17, -161.32)" d="M 82.5732 246.964 C 35.704 239.065 0.0000610352 198.289 0.0000610352 149.174 C 0.0000610352 94.4015 44.4016 50 99.1736 50 C 153.946 50 198.347 94.4015 198.347 149.174 C 198.347 193.681 169.029 231.34 128.652 243.893 C 124.467 246.271 112.518 253.103 104.486 258.087 C 95.6449 263.574 82.1692 272.643 82.1692 272.643 C 82.1692 272.643 83.1887 264.327 83.2346 258.973 C 83.2681 255.066 82.8107 249.546 82.5732 246.964 Z" stroke-linecap="round" /></g><g transform="matrix(1 0 0 1 -446.42 17.86)"  ><path style="stroke: none; stroke-width: 1; stroke-dasharray: none; stroke-linecap: butt; stroke-dashoffset: 0; stroke-linejoin: miter; stroke-miterlimit: 4; fill: rgb(50,56,66); fill-rule: nonzero; opacity: 1;"  transform=" translate(-99.08, -154.36)" d="M 166.982 164.712 C 166.982 156.368 162.857 149.02 156.557 144.549 C 156.316 112.939 130.636 87.2927 99.0772 87.2927 C 67.5131 87.2927 41.8298 112.939 41.5937 144.549 C 35.2949 149.02 31.1699 156.368 31.1699 164.712 C 31.1699 178.056 41.7228 188.872 54.9032 189.393 C 54.9032 191.321 56.4635 192.89 58.3889 192.89 L 68.739 192.89 C 70.6644 192.89 72.2296 191.321 72.2296 189.393 L 72.2296 140.026 C 72.2296 138.091 70.6644 136.529 68.7353 136.529 L 58.3939 136.529 C 56.4635 136.529 54.9032 138.091 54.9032 140.026 C 53.6036 140.081 52.3557 140.302 51.1151 140.543 C 53.3553 115.966 74.0013 96.6405 99.0785 96.6405 C 124.152 96.6405 144.798 115.968 147.038 140.543 C 145.798 140.302 144.548 140.081 143.249 140.026 C 143.249 138.091 141.689 136.529 139.758 136.529 L 129.417 136.529 C 127.488 136.529 125.922 138.091 125.922 140.026 L 125.922 189.393 C 125.922 191.321 127.486 192.89 129.412 192.89 L 139.762 192.89 C 141.687 192.89 143.248 191.321 143.248 189.393 C 145.875 189.285 148.398 188.76 150.759 187.894 C 148.961 194.767 142.895 207.545 122.876 210.219 L 122.876 209.906 C 122.876 207.088 120.597 204.802 117.788 204.802 L 104.16 204.802 C 101.354 204.802 99.076 207.088 99.076 209.906 L 99.076 216.331 C 99.076 219.153 101.354 221.435 104.16 221.435 L 117.788 221.435 C 120.597 221.435 122.876 219.153 122.876 216.331 L 122.876 214.616 C 149.513 211.326 154.693 191.405 155.635 185.459 C 162.45 181.066 166.982 173.443 166.982 164.712 Z" stroke-linecap="round" /></g><g transform="matrix(1 0 0 1 -446.42 41.75)"  ><path style="stroke: rgb(50,56,66); stroke-width: 10; stroke-dasharray: none; stroke-linecap: round; stroke-dashoffset: 0; stroke-linejoin: miter; stroke-miterlimit: 4; fill: none; fill-rule: nonzero; opacity: 1;"  transform=" translate(-99.08, -178.25)" d="M 84.604 175.793 C 97.1277 182.472 102.415 182.194 113.548 175.793" stroke-linecap="round" /></g><g transform="matrix(1 0 0 1 119.34 13)"  ><path style="stroke: none; stroke-width: 1; stroke-dasharray: none; stroke-linecap: butt; stroke-dashoffset: 0; stroke-linejoin: miter; stroke-miterlimit: 4; fill: rgb(50,56,66); fill-rule: nonzero; opacity: 1;"  transform=" translate(-664.84, -149.5)" d="M 258.747 203.4 C 255.414 203.4 252.881 202.533 251.147 200.8 C 249.414 198.933 248.547 196.4 248.547 193.2 L 248.547 113.2 C 248.547 109.867 249.414 107.333 251.147 105.6 C 252.881 103.867 255.281 103 258.347 103 C 261.547 103 263.947 103.867 265.547 105.6 C 267.281 107.333 268.147 109.867 268.147 113.2 L 268.147 127.8 L 266.147 127.8 C 268.281 119.8 272.214 113.733 277.947 109.6 C 283.681 105.467 291.014 103.067 299.947 102.4 C 302.347 102.267 304.214 102.867 305.547 104.2 C 307.014 105.533 307.814 107.6 307.947 110.4 C 308.214 113.2 307.614 115.467 306.147 117.2 C 304.681 118.8 302.414 119.733 299.347 120 L 295.547 120.4 C 286.881 121.2 280.281 123.933 275.747 128.6 C 271.214 133.267 268.947 139.667 268.947 147.8 L 268.947 193.2 C 268.947 196.4 268.081 198.933 266.347 200.8 C 264.747 202.533 262.214 203.4 258.747 203.4 Z M 367.589 203.8 C 356.923 203.8 347.723 201.8 339.989 197.8 C 332.389 193.667 326.456 187.867 322.189 180.4 C 318.056 172.8 315.989 163.8 315.989 153.4 C 315.989 143.267 318.056 134.4 322.189 126.8 C 326.323 119.2 331.989 113.267 339.189 109 C 346.389 104.733 354.589 102.6 363.789 102.6 C 370.589 102.6 376.656 103.733 381.989 106 C 387.323 108.133 391.856 111.333 395.589 115.6 C 399.456 119.733 402.323 124.8 404.189 130.8 C 406.189 136.8 407.189 143.533 407.189 151 C 407.189 153.267 406.523 155 405.189 156.2 C 403.856 157.267 401.856 157.8 399.189 157.8 L 331.989 157.8 L 331.989 145.4 L 393.589 145.4 L 390.189 148.2 C 390.189 141.533 389.189 135.867 387.189 131.2 C 385.323 126.533 382.456 123 378.589 120.6 C 374.856 118.067 370.189 116.8 364.589 116.8 C 358.323 116.8 352.989 118.267 348.589 121.2 C 344.323 124.133 341.056 128.2 338.789 133.4 C 336.523 138.6 335.389 144.667 335.389 151.6 L 335.389 152.8 C 335.389 164.533 338.123 173.4 343.589 179.4 C 349.189 185.267 357.256 188.2 367.789 188.2 C 371.789 188.2 375.989 187.667 380.389 186.6 C 384.923 185.533 389.189 183.733 393.189 181.2 C 395.456 179.867 397.456 179.267 399.189 179.4 C 401.056 179.533 402.523 180.133 403.589 181.2 C 404.789 182.267 405.523 183.6 405.789 185.2 C 406.056 186.8 405.789 188.467 404.989 190.2 C 404.189 191.8 402.789 193.267 400.789 194.6 C 396.256 197.667 390.989 200 384.989 201.6 C 378.989 203.067 373.189 203.8 367.589 203.8 Z M 463.411 203.8 C 457.545 203.8 451.478 203.133 445.211 201.8 C 439.078 200.467 433.411 198.2 428.211 195 C 426.478 193.8 425.278 192.467 424.611 191 C 423.945 189.533 423.678 188.067 423.811 186.6 C 424.078 185 424.678 183.667 425.611 182.6 C 426.678 181.4 427.945 180.667 429.411 180.4 C 431.011 180.133 432.678 180.467 434.411 181.4 C 439.611 184.333 444.611 186.4 449.411 187.6 C 454.211 188.667 458.945 189.2 463.611 189.2 C 470.678 189.2 476.011 187.933 479.611 185.4 C 483.211 182.867 485.011 179.467 485.011 175.2 C 485.011 171.733 483.811 169.067 481.411 167.2 C 479.011 165.2 475.411 163.667 470.611 162.6 L 451.611 158.8 C 443.345 157.067 437.078 154 432.811 149.6 C 428.545 145.2 426.411 139.6 426.411 132.8 C 426.411 126.667 428.078 121.333 431.411 116.8 C 434.745 112.267 439.411 108.8 445.411 106.4 C 451.411 103.867 458.345 102.6 466.211 102.6 C 472.078 102.6 477.611 103.333 482.811 104.8 C 488.011 106.267 492.811 108.467 497.211 111.4 C 498.945 112.333 500.078 113.6 500.611 115.2 C 501.145 116.667 501.211 118.133 500.811 119.6 C 500.545 121.067 499.878 122.4 498.811 123.6 C 497.745 124.667 496.411 125.333 494.811 125.6 C 493.345 125.733 491.678 125.333 489.811 124.4 C 485.811 121.867 481.811 120.067 477.811 119 C 473.945 117.933 470.078 117.4 466.211 117.4 C 459.145 117.4 453.811 118.733 450.211 121.4 C 446.745 123.933 445.011 127.4 445.011 131.8 C 445.011 135.133 446.078 137.867 448.211 140 C 450.345 142.133 453.678 143.667 458.211 144.6 L 477.211 148.4 C 485.878 150.133 492.411 153.067 496.811 157.2 C 501.345 161.333 503.611 166.933 503.611 174 C 503.611 183.2 499.945 190.467 492.611 195.8 C 485.278 201.133 475.545 203.8 463.411 203.8 Z M 536.086 239.4 C 532.886 239.4 530.42 238.533 528.686 236.8 C 526.953 235.067 526.086 232.533 526.086 229.2 L 526.086 113.2 C 526.086 109.867 526.953 107.333 528.686 105.6 C 530.42 103.867 532.82 103 535.886 103 C 539.086 103 541.553 103.867 543.286 105.6 C 545.02 107.333 545.886 109.867 545.886 113.2 L 545.886 130.6 L 543.686 126.4 C 545.82 119.2 550.02 113.467 556.286 109.2 C 562.553 104.8 569.953 102.6 578.486 102.6 C 587.153 102.6 594.686 104.667 601.086 108.8 C 607.62 112.933 612.62 118.733 616.086 126.2 C 619.686 133.667 621.486 142.667 621.486 153.2 C 621.486 163.467 619.686 172.467 616.086 180.2 C 612.62 187.8 607.686 193.667 601.286 197.8 C 594.886 201.8 587.286 203.8 578.486 203.8 C 570.086 203.8 562.753 201.667 556.486 197.4 C 550.22 193.133 546.02 187.467 543.886 180.4 L 546.286 180.4 L 546.286 229.2 C 546.286 232.533 545.353 235.067 543.486 236.8 C 541.753 238.533 539.286 239.4 536.086 239.4 Z M 573.486 188.2 C 579.086 188.2 583.953 186.867 588.086 184.2 C 592.22 181.533 595.42 177.6 597.686 172.4 C 599.953 167.2 601.086 160.8 601.086 153.2 C 601.086 141.733 598.553 133.067 593.486 127.2 C 588.553 121.333 581.886 118.4 573.486 118.4 C 568.02 118.4 563.153 119.733 558.886 122.4 C 554.753 124.933 551.553 128.8 549.286 134 C 547.02 139.2 545.886 145.6 545.886 153.2 C 545.886 164.533 548.42 173.2 553.486 179.2 C 558.553 185.2 565.22 188.2 573.486 188.2 Z M 686.65 203.8 C 676.784 203.8 668.25 201.733 661.05 197.6 C 653.984 193.467 648.45 187.6 644.45 180 C 640.45 172.4 638.45 163.467 638.45 153.2 C 638.45 145.333 639.584 138.333 641.85 132.2 C 644.117 126.067 647.317 120.8 651.45 116.4 C 655.717 111.867 660.784 108.467 666.65 106.2 C 672.65 103.8 679.317 102.6 686.65 102.6 C 696.384 102.6 704.784 104.667 711.85 108.8 C 719.05 112.933 724.65 118.8 728.65 126.4 C 732.65 133.867 734.65 142.8 734.65 153.2 C 734.65 160.933 733.517 167.933 731.25 174.2 C 728.984 180.467 725.717 185.8 721.45 190.2 C 717.317 194.6 712.25 198 706.25 200.4 C 700.384 202.667 693.85 203.8 686.65 203.8 Z M 686.65 188.2 C 692.117 188.2 696.917 186.867 701.05 184.2 C 705.184 181.533 708.384 177.6 710.65 172.4 C 713.05 167.2 714.25 160.8 714.25 153.2 C 714.25 141.733 711.717 133.067 706.65 127.2 C 701.584 121.333 694.917 118.4 686.65 118.4 C 681.05 118.4 676.184 119.733 672.05 122.4 C 667.917 124.933 664.65 128.8 662.25 134 C 659.984 139.2 658.85 145.6 658.85 153.2 C 658.85 164.533 661.384 173.2 666.45 179.2 C 671.517 185.2 678.25 188.2 686.65 188.2 Z M 767.336 203.4 C 764.136 203.4 761.67 202.533 759.936 200.8 C 758.203 198.933 757.336 196.4 757.336 193.2 L 757.336 113.2 C 757.336 109.867 758.203 107.333 759.936 105.6 C 761.67 103.867 764.07 103 767.136 103 C 770.336 103 772.736 103.867 774.336 105.6 C 776.07 107.333 776.936 109.867 776.936 113.2 L 776.936 128.8 L 774.736 125.2 C 777.67 117.733 782.27 112.133 788.536 108.4 C 794.803 104.533 802.003 102.6 810.136 102.6 C 817.87 102.6 824.27 104.067 829.336 107 C 834.536 109.8 838.403 114.133 840.936 120 C 843.47 125.733 844.736 133 844.736 141.8 L 844.736 193.2 C 844.736 196.4 843.87 198.933 842.136 200.8 C 840.403 202.533 837.936 203.4 834.736 203.4 C 831.403 203.4 828.87 202.533 827.136 200.8 C 825.403 198.933 824.536 196.4 824.536 193.2 L 824.536 143 C 824.536 134.6 822.87 128.467 819.536 124.6 C 816.336 120.733 811.27 118.8 804.336 118.8 C 796.203 118.8 789.67 121.333 784.736 126.4 C 779.936 131.467 777.536 138.267 777.536 146.8 L 777.536 193.2 C 777.536 200 774.136 203.4 767.336 203.4 Z M 909.771 203.8 C 901.237 203.8 893.704 201.8 887.171 197.8 C 880.771 193.667 875.771 187.8 872.171 180.2 C 868.571 172.467 866.771 163.467 866.771 153.2 C 866.771 142.667 868.571 133.667 872.171 126.2 C 875.771 118.733 880.771 112.933 887.171 108.8 C 893.704 104.667 901.237 102.6 909.771 102.6 C 918.304 102.6 925.637 104.733 931.771 109 C 938.037 113.133 942.237 118.733 944.371 125.8 L 942.171 125.8 L 942.171 69.8 C 942.171 66.4667 943.037 63.9333 944.771 62.2 C 946.504 60.4667 948.971 59.6 952.171 59.6 C 955.371 59.6 957.837 60.4667 959.571 62.2 C 961.437 63.9333 962.371 66.4667 962.371 69.8 L 962.371 193.2 C 962.371 196.4 961.504 198.933 959.771 200.8 C 958.037 202.533 955.571 203.4 952.371 203.4 C 949.171 203.4 946.704 202.533 944.971 200.8 C 943.237 198.933 942.371 196.4 942.371 193.2 L 942.371 175.6 L 944.571 180 C 942.437 187.2 938.237 193 931.971 197.4 C 925.837 201.667 918.437 203.8 909.771 203.8 Z M 914.971 188.2 C 920.437 188.2 925.237 186.867 929.371 184.2 C 933.504 181.533 936.704 177.6 938.971 172.4 C 941.371 167.2 942.571 160.8 942.571 153.2 C 942.571 141.733 940.037 133.067 934.971 127.2 C 929.904 121.333 923.237 118.4 914.971 118.4 C 909.371 118.4 904.504 119.733 900.371 122.4 C 896.237 124.933 892.971 128.8 890.571 134 C 888.304 139.2 887.171 145.6 887.171 153.2 C 887.171 164.533 889.704 173.2 894.771 179.2 C 899.837 185.2 906.571 188.2 914.971 188.2 Z M 1033.13 203.8 C 1023.27 203.8 1014.73 201.733 1007.53 197.6 C 1000.47 193.467 994.935 187.6 990.935 180 C 986.935 172.4 984.935 163.467 984.935 153.2 C 984.935 145.333 986.068 138.333 988.335 132.2 C 990.601 126.067 993.801 120.8 997.935 116.4 C 1002.2 111.867 1007.27 108.467 1013.13 106.2 C 1019.13 103.8 1025.8 102.6 1033.13 102.6 C 1042.87 102.6 1051.27 104.667 1058.33 108.8 C 1065.53 112.933 1071.13 118.8 1075.13 126.4 C 1079.13 133.867 1081.13 142.8 1081.13 153.2 C 1081.13 160.933 1080 167.933 1077.73 174.2 C 1075.47 180.467 1072.2 185.8 1067.93 190.2 C 1063.8 194.6 1058.73 198 1052.73 200.4 C 1046.87 202.667 1040.33 203.8 1033.13 203.8 Z M 1033.13 188.2 C 1038.6 188.2 1043.4 186.867 1047.53 184.2 C 1051.67 181.533 1054.87 177.6 1057.13 172.4 C 1059.53 167.2 1060.73 160.8 1060.73 153.2 C 1060.73 141.733 1058.2 133.067 1053.13 127.2 C 1048.07 121.333 1041.4 118.4 1033.13 118.4 C 1027.53 118.4 1022.67 119.733 1018.53 122.4 C 1014.4 124.933 1011.13 128.8 1008.73 134 C 1006.47 139.2 1005.33 145.6 1005.33 153.2 C 1005.33 164.533 1007.87 173.2 1012.93 179.2 C 1018 185.2 1024.73 188.2 1033.13 188.2 Z" stroke-linecap="round" /></g></g></g></svg>