<svg viewBox = "0 0 500 500" width="500" height="500" xmlns="http://www.w3.org/2000/svg"><g transform="matrix(1 0 0 1 250 250)"  ><g style=""   ><g transform="matrix(1 0 0 1 0 0)"  ><rect style="stroke: none; stroke-width: 1; stroke-dasharray: none; stroke-linecap: butt; stroke-dashoffset: 0; stroke-linejoin: miter; stroke-miterlimit: 4; fill: rgb(99,106,232); fill-rule: nonzero; opacity: 1;"  x="-250" y="-250" rx="24" ry="24" width="500" height="500" /></g><g transform="matrix(1 0 0 1 -5.5 3.5)"  ><path style="stroke: none; stroke-width: 1; stroke-dasharray: none; stroke-linecap: butt; stroke-dashoffset: 0; stroke-linejoin: miter; stroke-miterlimit: 4; fill: rgb(50,56,66); fill-rule: nonzero; opacity: 1;"  transform=" translate(-244.5, -253.5)" d="M 400 277.183 C 400 258.087 390.554 241.27 376.127 231.037 C 375.576 158.695 316.771 100 244.503 100 C 172.223 100 113.41 158.695 112.87 231.037 C 98.446 241.27 89 258.087 89 277.183 C 89 307.723 113.165 332.476 143.348 333.667 C 143.348 338.08 146.92 341.671 151.33 341.671 L 175.03 341.671 C 179.439 341.671 183.024 338.08 183.024 333.667 L 183.024 220.687 C 183.024 216.258 179.439 212.684 175.022 212.684 L 151.341 212.684 C 146.92 212.684 143.348 216.258 143.348 220.687 C 140.372 220.811 137.514 221.317 134.673 221.87 C 139.803 165.623 187.081 121.393 244.506 121.393 C 301.922 121.393 349.2 165.626 354.33 221.87 C 351.489 221.317 348.628 220.811 345.652 220.687 C 345.652 216.258 342.08 212.684 337.659 212.684 L 313.978 212.684 C 309.561 212.684 305.976 216.258 305.976 220.687 L 305.976 333.667 C 305.976 338.08 309.558 341.671 313.967 341.671 L 337.668 341.671 C 342.077 341.671 345.65 338.08 345.65 333.667 C 351.666 333.422 357.444 332.219 362.849 330.237 C 358.733 345.968 344.842 375.212 299 381.33 L 299 380.615 C 299 374.165 293.782 368.933 287.349 368.933 L 256.142 368.933 C 249.717 368.933 244.5 374.165 244.5 380.615 L 244.5 395.318 C 244.5 401.777 249.717 407 256.142 407 L 287.349 407 C 293.782 407 299 401.777 299 395.318 L 299 391.394 C 359.997 383.865 371.859 338.272 374.016 324.664 C 389.622 314.611 400 297.165 400 277.183 Z" stroke-linecap="round" /></g><g transform="matrix(1 0 0 1 -2.5 62.88)"  ><path style="stroke: rgb(50,56,66); stroke-width: 16; stroke-dasharray: none; stroke-linecap: round; stroke-dashoffset: 0; stroke-linejoin: miter; stroke-miterlimit: 4; fill: none; fill-rule: nonzero; opacity: 1;"  transform=" translate(-247.5, -312.88)" d="M 210.5 308 C 240 321.5 257 320.5 284.5 308" stroke-linecap="round" /></g></g></g></svg>