<svg viewBox = "0 0 197 112" width="197" height="112" xmlns="http://www.w3.org/2000/svg"><g transform="matrix(1 0 0 1 98.48 55.82)"  ><path style="stroke: none; stroke-width: 1; stroke-dasharray: none; stroke-linecap: butt; stroke-dashoffset: 0; stroke-linejoin: miter; stroke-miterlimit: 4; fill: rgb(99,106,232); fill-opacity: 0.8; fill-rule: evenodd; opacity: 1;"  transform=" translate(-98.48, -55.82)" d="M 0 0 C 5.19461 43.7157 38.825 78.7089 81.8753 85.9639 C 82.1128 88.5455 82.5702 94.0663 82.5367 97.9729 C 82.4908 103.327 81.4713 111.643 81.4713 111.643 C 81.4713 111.643 94.947 102.574 103.788 97.0875 C 111.82 92.1034 123.769 85.2715 127.954 82.8925 C 164.7 71.4687 192.287 39.25 196.951 0 L 0 0 Z M 79.4944 34.6471 C 80.7939 32.2105 83.8225 31.2887 86.2591 32.5882 C 92.3613 35.8427 95.8868 36.9294 98.8591 36.9053 C 101.79 36.8814 104.954 35.7724 110.357 32.6655 C 112.751 31.289 115.808 32.1137 117.184 34.5076 C 118.561 36.9015 117.736 39.958 115.342 41.3345 C 109.613 44.6286 104.567 46.8592 98.9404 46.9049 C 93.3549 46.9503 87.9747 44.8366 81.5532 41.4118 C 79.1167 40.1123 78.1949 37.0836 79.4944 34.6471 Z" stroke-linecap="round" /></g></svg>