<svg viewBox = "0 0 88 88" width="88" height="88" xmlns="http://www.w3.org/2000/svg"><g transform="matrix(1 0 0 1 44 44)"  ><g style=""   ><g transform="matrix(1 0 0 1 -16.05 -2.89)"  ><path style="stroke: none; stroke-width: 1; stroke-dasharray: none; stroke-linecap: butt; stroke-dashoffset: 0; stroke-linejoin: miter; stroke-miterlimit: 4; fill: rgb(222,225,230); fill-rule: nonzero; opacity: 1;"  transform=" translate(-27.95, -41.11)" d="M 10.9932 35.7478 C 7.34391 27.7361 11.8086 18.3711 20.3307 16.1621 L 42.8724 10.319 L 42.8724 10.319 C 33.9319 13.2864 29.5395 23.3523 33.4443 31.9249 L 45.6708 58.7669 C 47.0078 61.7023 45.7121 65.1658 42.7767 66.5029 L 31.6964 71.55 C 29.686 72.4658 27.3139 71.5783 26.3982 69.5679 L 10.9932 35.7478 L 10.9932 35.7478 Z" stroke-linecap="round" /></g><g transform="matrix(1 0 0 1 16.05 2.07)"  ><path style="stroke: none; stroke-width: 1; stroke-dasharray: none; stroke-linecap: butt; stroke-dashoffset: 0; stroke-linejoin: miter; stroke-miterlimit: 4; fill: rgb(188,193,202); fill-rule: nonzero; opacity: 1;"  transform=" translate(-60.05, -46.07)" d="M 77.0068 51.44 C 80.6561 59.4517 76.1914 68.8166 67.6693 71.0256 L 45.1276 76.8688 L 45.1276 76.8688 C 54.0681 73.9013 58.4605 63.8355 54.5557 55.2628 L 42.3292 28.4208 C 40.9922 25.4854 42.2879 22.0219 45.2233 20.6848 L 56.3036 15.6377 C 58.314 14.722 60.6861 15.6094 61.6018 17.6198 L 77.0068 51.44 L 77.0068 51.44 Z" stroke-linecap="round" /></g></g></g></svg>